<svg aria-hidden="true" style="position: absolute; width: 0; height: 0; overflow: hidden;" version="1.1" xmlns="http://www.w3.org/2000/svg" xmlns:xlink="http://www.w3.org/1999/xlink">
<defs>
<symbol id="cat1" viewBox="0 0 43 32">
<path d="M39.25 2.353c-0.23 0.040-6.14 0.457-12.45 0.88-11.213 0.75-20.213 1.313-21.367 1.337-0.37 0.010-0.413 0.027-0.8 0.327-0.697 0.537-1.953 1.903-2.613 2.833-0.313 0.443-0.3 0.58 0.073 0.817 0.203 0.127 0.223 0.183 0.22 0.62-0.007 0.747-0.24 1.83-0.533 2.457-0.063 0.133-0.113 0.267-0.113 0.303 0 0.33 0.57 0.253 1.85-0.25 0.607-0.24 1.077-0.45 2.567-1.143 0.68-0.317 1.343-0.617 1.477-0.67 0.237-0.093 0.407-0.123 0.407-0.070 0 0.040-0.11 0.117-1.033 0.707-0.95 0.607-1.353 0.883-1.827 1.263-1.177 0.943-1.49 1.64-0.943 2.107 0.183 0.16 0.62 0.387 0.873 0.45 0.247 0.067 0.847 0.080 1.773 0.037 0.53-0.027 0.59-0.023 0.59 0.023 0 0.077-0.33 0.28-1.25 0.77-1.617 0.86-2.040 1.113-2.43 1.447-0.617 0.523-0.86 1.133-0.64 1.587 0.103 0.21 0.29 0.363 0.533 0.433 0.22 0.067 0.407 0.063 0.893-0.017 1.070-0.17 2.327-0.247 3.663-0.223 1.017 0.020 1.257 0.040 1.523 0.143 0.183 0.070 0.18 0.163-0.007 0.267l-0.13 0.073 0.247 0.020c0.353 0.030 2.077 0.083 3.797 0.12 4.627 0.1 8.883-0.060 11.55-0.437 1.503-0.213 2.733-0.543 3.29-0.887 0.067-0.040 0.13-0.063 0.137-0.050s0.017 0.12 0.020 0.24c0.033 0.95 0.557 2.107 1.287 2.85 0.13 0.13 0.31 0.28 0.4 0.333 0.093 0.053 0.17 0.097 0.177 0.103 0.007 0.003-0.033 0.113-0.083 0.247-0.073 0.193-0.12 0.263-0.223 0.34-0.167 0.12-0.457 0.207-0.627 0.183-0.317-0.043-0.437-0.26-0.433-0.773 0-0.183-0.013-0.38-0.030-0.44-0.040-0.127-0.237-0.31-0.333-0.31-0.093 0-0.25 0.087-0.307 0.167l-0.047 0.067-0.060-0.067c-0.067-0.073-0.243-0.090-0.36-0.030-0.22 0.113-0.33 0.323-0.263 0.5 0.033 0.083 0.027 0.087-0.13 0.127-0.343 0.090-0.43 0.277-0.213 0.467 0.067 0.057 0.13 0.103 0.143 0.103 0.013 0.003 0.097 0.023 0.183 0.047l0.16 0.040 0.11 0.323c0.137 0.397 0.287 0.653 0.497 0.84 0.207 0.19 0.413 0.257 0.817 0.267 0.18 0.003 0.37 0.010 0.43 0.010l0.107 0.007-0.020 0.33c-0.033 0.54 0.080 1.363 0.293 2.097 0.11 0.393 0.18 0.573 0.22 0.573 0.013 0 0.047-0.013 0.070-0.030 0.037-0.020 0.020-0.1-0.073-0.38-0.207-0.617-0.353-1.47-0.353-2.057 0-0.63 0.083-1.013 0.383-1.783 0.183-0.47 0.383-1.013 0.383-1.037 0-0.013-0.037-0.010-0.083 0-0.293 0.073-0.997-0.677-1.413-1.507-0.353-0.703-0.513-1.493-0.44-2.157 0.11-0.957 0.55-1.773 1.373-2.55l0.23-0.217-0.13-0.633c-0.073-0.35-0.127-0.637-0.12-0.643 0.003-0.007 0.373 0.17 0.813 0.393 0.443 0.22 0.817 0.393 0.833 0.387 0.063-0.040 0.543-0.153 0.787-0.183 0.177-0.023 0.34-0.027 0.483-0.003 0.45 0.067 0.44 0.070 1.057-0.33l0.56-0.363 0.017 0.643 0.017 0.64 0.25 0.2c0.58 0.463 1.053 1.040 1.337 1.63 0.503 1.043 0.423 2.107-0.227 3.047-0.267 0.38-0.483 0.6-0.943 0.96-0.567 0.44-0.523 0.397-0.46 0.463 0.080 0.077 0.097 0.063 1.080-0.74 0.213-0.177 1.433-1.58 2.14-2.463 0.2-0.253 0.37-0.35 0.593-0.353 0.3 0 0.353 0.18 0.127 0.433l-0.117 0.13 0.11 0.1c0.060 0.057 0.193 0.143 0.293 0.193s0.19 0.093 0.197 0.097c0.030 0.023-0.173 0.313-0.3 0.427-0.267 0.243-0.48 0.273-0.593 0.083l-0.063-0.1-0.153 0.283c-0.393 0.72-1.077 1.647-1.53 2.077-0.33 0.313-0.557 0.443-0.767 0.443h-0.157l0.007 1.49c0.010 1.393 0.003 1.533-0.067 2.077-0.090 0.687-0.127 0.89-0.197 1.117-0.067 0.217-0.28 0.643-0.44 0.88l-0.127 0.187 0.173 1.76 0.38 0.187c0.41 0.207 0.467 0.267 0.47 0.49 0 0.227-0.167 0.407-0.543 0.58-0.523 0.247-1.167 0.26-1.397 0.033-0.117-0.117-0.123-0.3-0.023-0.533l0.070-0.163-0.070-0.293c-0.037-0.16-0.137-0.62-0.22-1.023-0.083-0.4-0.157-0.74-0.167-0.75-0.007-0.013-0.197 0.003-0.423 0.040-0.487 0.077-0.507 0.090-0.697 0.473-0.133 0.27-0.207 0.553-0.247 0.953l-0.023 0.22 0.16 0.023c0.643 0.093 1.023 0.293 0.947 0.503-0.073 0.197-0.5 0.457-0.99 0.603-0.41 0.123-0.957 0.133-1.167 0.020-0.243-0.127-0.31-0.387-0.197-0.757 0.037-0.11 0.053-0.303 0.053-0.57 0-0.287 0.020-0.503 0.070-0.733 0.047-0.217 0.070-0.453 0.070-0.687l0.003-0.357 0.357-0.25c0.193-0.137 0.38-0.26 0.41-0.273 0.030-0.010 0.047-0.033 0.037-0.053-0.010-0.017 0.010-0.040 0.050-0.050 0.080-0.020 0.090-0.060 0.023-0.087-0.073-0.030-0.267 0.083-0.82 0.48-1.18 0.847-1.903 1.287-2.317 1.413-0.423 0.127-0.85-0.013-0.85-0.28 0-0.137 0.173-0.263 0.65-0.473 1.337-0.583 2.21-1.14 2.543-1.62l0.077-0.107-0.070-0.037c-0.060-0.033-0.080-0.023-0.14 0.057-0.13 0.173-0.443 0.457-0.697 0.63-0.373 0.26-0.807 0.49-1.593 0.85-0.39 0.18-0.747 0.36-0.793 0.4-0.297 0.283-0.063 0.73 0.41 0.783 0.457 0.053 1.1-0.24 2.17-0.99 0.207-0.147 0.383-0.263 0.397-0.263 0.040 0-0.013 0.607-0.083 0.933-0.047 0.217-0.070 0.443-0.070 0.717 0 0.257-0.020 0.46-0.050 0.563-0.173 0.577 0.063 0.92 0.693 1.007 0.48 0.067 1.447-0.247 1.8-0.58 0.413-0.39 0.133-0.767-0.67-0.91l-0.243-0.040 0.020-0.17c0.060-0.453 0.23-0.933 0.387-1.073 0.060-0.053 0.65-0.17 0.683-0.137 0.010 0.010 0.083 0.333 0.163 0.72s0.17 0.8 0.203 0.923c0.053 0.213 0.050 0.223-0.020 0.417-0.197 0.523 0.087 0.843 0.75 0.843 0.813-0.003 1.547-0.447 1.55-0.943 0-0.063-0.033-0.18-0.070-0.26-0.063-0.133-0.103-0.163-0.433-0.33-0.2-0.1-0.363-0.2-0.363-0.223 0-0.020-0.037-0.383-0.080-0.807l-0.080-0.767 0.127-0.183c0.233-0.343 0.433-0.793 0.497-1.113 0.063-0.313 0.173-1.223 0.2-1.69 0.017-0.253 0.023-0.947 0.013-1.54l-0.020-1.080 0.137-0.020c0.327-0.053 0.903-0.57 1.46-1.31 0.227-0.303 0.647-0.94 0.84-1.277 0.020-0.037 0.047-0.040 0.143-0.007 0.28 0.090 0.733-0.207 0.933-0.617l0.067-0.143 0.193 0.107c0.187 0.1 0.197 0.103 0.277 0.050 0.097-0.063 0.293-0.43 0.293-0.54-0.003-0.053-0.127-0.147-0.543-0.4-0.297-0.183-0.64-0.397-0.763-0.477l-0.223-0.147 0.077-0.213 0.077-0.217-0.18-0.24c-0.1-0.133-0.193-0.25-0.21-0.253-0.020-0.007-0.033-0.2-0.033-0.443 0-0.403-0.003-0.43-0.067-0.43-0.047 0-0.073-0.037-0.103-0.143-0.103-0.39-0.357-0.59-0.98-0.777-0.26-0.077-0.377-0.090-0.903-0.103-0.363-0.013-0.627-0.007-0.663 0.013-0.040 0.023 0.073 0.040 0.387 0.053 0.967 0.043 1.697 0.253 1.723 0.5 0.013 0.11-0.020 0.113-0.117 0.010-0.253-0.267-1.21-0.413-1.76-0.267-0.11 0.027-0.353 0.060-0.543 0.073l-0.34 0.023 0.007-0.713 0.010-0.713 1.983-0.77c1.090-0.427 2.12-0.823 2.283-0.883 0.703-0.253 1.83-0.883 1.897-1.060 0.063-0.163 0.027-0.15-2.113 0.68-0.903 0.35-0.953 0.37-0.833 0.3 0.21-0.123 2.040-0.843 2.563-1.010 0.133-0.043 0.273-0.103 0.307-0.133 0.177-0.16 0.080-0.5-0.353-1.247-0.697-1.197-0.76-1.463-0.39-1.62l0.123-0.050-0.080-0.067c-0.117-0.093-0.513-0.207-1.603-0.45-2.37-0.527-2.863-0.677-2.867-0.857 0-0.037 0.313-0.17 0.5-0.217 0.083-0.020 0.3-0.053 0.483-0.073 0.643-0.070 0.833-0.13 1.040-0.33 0.057-0.053 0.187-0.14 0.283-0.19 0.303-0.153 0.567-0.347 0.827-0.61 0.407-0.413 0.56-0.773 0.587-1.387 0.010-0.203 0.020-0.423 0.027-0.493 0.013-0.12 0.010-0.123-0.090-0.12-0.060 0.003-0.137 0.010-0.173 0.017zM40.113 10.7c-0.077 0.077-0.91 0.42-2.68 1.11-1.017 0.397-2.060 0.81-2.317 0.92l-0.467 0.2 0.183-0.163c0.243-0.217 0.47-0.337 1.023-0.53 0.587-0.207 1.91-0.697 3.21-1.183 0.56-0.21 1.030-0.383 1.050-0.383 0.017-0.003 0.017 0.010-0.003 0.030zM38.093 15.717c0.010 0.090-0.003 0.107-0.103 0.143-0.263 0.093-0.847 0.763-0.907 1.040-0.013 0.053-0.033 0.093-0.050 0.083-0.030-0.017-0.267-0.43-0.267-0.463 0-0.007 0.060-0.053 0.133-0.097 0.077-0.043 0.203-0.17 0.283-0.283 0.14-0.193 0.153-0.203 0.327-0.223 0.217-0.027 0.223-0.033 0.32-0.193 0.063-0.103 0.093-0.127 0.167-0.117 0.070 0.007 0.090 0.030 0.097 0.11zM36.277 15.847c0.057 0.057 0.103 0.073 0.163 0.063 0.080-0.017 0.083-0.007 0.1 0.18 0.020 0.21 0.163 0.56 0.377 0.907 0.063 0.107 0.117 0.22 0.117 0.25 0 0.13 0.103 0.25 0.29 0.337 0.107 0.050 0.2 0.097 0.207 0.103 0.010 0.010-1.027 1.247-1.047 1.247-0.007 0 0.023-0.090 0.067-0.197 0.353-0.903 0.247-1.943-0.283-2.807-0.11-0.18-0.107-0.203 0.010-0.083zM38.277 16.133c0.070 0.093 0.133 0.187 0.143 0.21 0.007 0.023-0.017 0.13-0.053 0.237-0.037 0.11-0.067 0.213-0.067 0.233s0.060 0.073 0.133 0.12l0.137 0.083-0.183 0.023c-0.21 0.027-0.36 0.093-0.503 0.223-0.053 0.050-0.157 0.123-0.227 0.163-0.12 0.070-0.13 0.070-0.26 0.020-0.073-0.030-0.147-0.083-0.163-0.117-0.11-0.2 0.043-0.587 0.377-0.947 0.177-0.193 0.457-0.417 0.523-0.417 0.010 0 0.077 0.077 0.143 0.167zM39.37 17.52c0.253 0.16 0.463 0.293 0.463 0.303 0 0.023-0.14 0.29-0.173 0.333-0.027 0.033-0.087 0.013-0.253-0.073-0.12-0.063-0.253-0.117-0.297-0.117-0.087 0-0.26-0.077-0.35-0.157-0.053-0.047-0.050-0.060 0.033-0.183 0.053-0.087 0.087-0.18 0.090-0.263 0-0.070 0.003-0.13 0.010-0.13s0.22 0.13 0.477 0.287zM28.833 20.64c0.087 0.097 0.097 0.133 0.107 0.577 0.010 0.303 0.023 0.393 0.090 0.527 0.157 0.323 0.473 0.423 0.897 0.283 0.13-0.047 0.24-0.080 0.24-0.073 0 0.003-0.040 0.11-0.087 0.233-0.137 0.36-0.213 0.617-0.237 0.777l-0.020 0.143-0.453-0.013c-0.533-0.017-0.673-0.063-0.893-0.3-0.177-0.193-0.26-0.357-0.41-0.793l-0.117-0.35-0.173-0.020c-0.197-0.027-0.383-0.123-0.37-0.197 0.010-0.047 0.227-0.13 0.47-0.183 0.107-0.020 0.113-0.060 0.023-0.173-0.097-0.123-0.083-0.223 0.037-0.327 0.13-0.107 0.283-0.107 0.273 0.007-0.003 0.037 0.013 0.090 0.043 0.113 0.043 0.037 0.077 0.017 0.223-0.13 0.19-0.193 0.253-0.21 0.357-0.1z"></path>
<path d="M24.317 25.85c-0.927 0.15-1.663 0.473-1.553 0.68 0.027 0.043 0.037 0.69 0.037 1.953 0 1.79 0.003 1.893 0.063 2.010 0.18 0.35 0.59 0.523 1.32 0.563 0.7 0.033 1.5-0.107 2.033-0.357 0.443-0.207 0.43-0.177 0.46-1.043 0.017-0.407 0.027-0.823 0.020-0.923-0.020-0.457-0.007-0.963 0.033-1.1 0.053-0.187 0.030-0.893-0.033-1.080-0.027-0.070-0.077-0.147-0.113-0.167s-0.133-0.097-0.217-0.17c-0.17-0.153-0.383-0.267-0.643-0.34-0.253-0.070-1.037-0.087-1.407-0.027zM25.583 26.017c0.29 0.063 0.533 0.18 0.677 0.327l0.11 0.113-0.277 0.177c-0.313 0.203-0.503 0.283-0.743 0.317-0.267 0.033-0.317 0.050-0.307 0.093 0.010 0.063-0.797 0.050-1.14-0.023-0.5-0.103-0.903-0.303-0.903-0.447 0-0.040-0.017-0.073-0.037-0.073-0.067 0 0.010-0.070 0.163-0.147 0.613-0.31 1.81-0.473 2.457-0.337zM23.2 26.957c0.433 0.21 1.133 0.333 1.683 0.297l0.3-0.023 0.090 0.143c0.17 0.277 0.163 0.493-0.027 0.68-0.12 0.123-0.133 0.183-0.083 0.437l0.027 0.14-0.18 0.023c-0.397 0.050-1.097-0.050-1.683-0.24l-0.357-0.117-0.010-0.73c-0.007-0.403-0.003-0.73 0.007-0.727 0.010 0.007 0.113 0.057 0.233 0.117zM26.45 26.903c0.013 0.040 0.013 0.217 0 0.393-0.017 0.26-0.013 0.347 0.033 0.457 0.033 0.087 0.050 0.207 0.043 0.33l-0.010 0.19-0.197 0.080c-0.177 0.070-0.513 0.173-0.76 0.227-0.087 0.020-0.090 0.013-0.073-0.070 0.007-0.053 0.037-0.337 0.060-0.637 0.023-0.297 0.053-0.55 0.063-0.563 0.013-0.010 0.060 0.013 0.103 0.053 0.057 0.053 0.1 0.067 0.163 0.053 0.137-0.037 0.337-0.23 0.42-0.413 0.090-0.187 0.12-0.207 0.153-0.1zM23.207 29.78c0.703 0.383 1.547 0.393 2.863 0.037 0.237-0.063 0.44-0.117 0.447-0.117 0.010 0 0.017 0.13 0.017 0.29v0.287l-0.127 0.12c-0.293 0.28-1.19 0.503-2.017 0.503-0.653 0-1.093-0.127-1.317-0.383-0.107-0.117-0.107-0.123-0.107-0.483 0-0.203 0.007-0.367 0.017-0.367 0.007 0 0.11 0.050 0.223 0.113z"></path>
</symbol>
<symbol id="cat2" viewBox="0 0 41 32">
<path d="M34.267 0.062c-1.38 0.441-3.715 3.096-6.84 7.777-0.887 1.331-0.897 1.344-0.829 1.396s0.081 0.036 0.764-0.923c2.698-3.78 4.975-6.335 6.183-6.931 0.321-0.159 0.612-0.191 0.777-0.087 0.447 0.282 0.661 1.393 0.612 3.177-0.052 2.047-0.395 4.875-0.978 8.097-0.113 0.632-0.207 1.205-0.207 1.27 0 0.172 0.097 0.223 0.191 0.104 0.259-0.33 0.959-3.456 1.36-6.086 0.415-2.708 0.547-4.871 0.376-6.17-0.175-1.344-0.635-1.872-1.409-1.623z"></path>
<path d="M6.779 0.207c-0.528 0.172-0.794 0.858-0.887 2.29-0.097 1.441 0.165 4.149 0.667 6.947 0.421 2.338 0.93 4.434 1.134 4.67 0.071 0.078 0.081 0.084 0.13 0.036 0.026-0.026 0.052-0.1 0.052-0.162 0.003-0.062-0.084-0.593-0.191-1.179-0.722-3.942-1.101-7.589-0.981-9.377 0.078-1.13 0.272-1.772 0.602-1.976 0.389-0.24 1.169 0.191 2.248 1.247 1.338 1.309 3.155 3.55 4.894 6.034 0.275 0.395 0.508 0.716 0.518 0.716s0.042-0.019 0.075-0.042c0.055-0.042 0.023-0.104-0.499-0.9-2.772-4.23-5.195-7.161-6.636-8.026-0.466-0.282-0.839-0.372-1.124-0.279z"></path>
<path d="M13.101 16.437c-0.34 0.078-0.599 0.178-1.101 0.421-1.208 0.589-2.536 1.655-4.211 3.388-0.683 0.703-1.393 1.509-1.393 1.577 0 0.13 0.126 0.065 0.525-0.275 0.23-0.191 0.829-0.706 1.338-1.147 2.167-1.869 2.934-2.458 3.802-2.915 0.67-0.353 1.156-0.473 1.739-0.437 0.738 0.049 1.328 0.249 1.836 0.635 1.26 0.949 2.293 3.168 3.161 6.798 0.136 0.56 0.149 0.645 0.13 0.871-0.019 0.217-0.013 0.269 0.049 0.385 0.113 0.223 0.389 0.366 0.713 0.366 0.146 0 0.152 0.003 0.279 0.201 0.159 0.249 0.418 0.518 0.56 0.58 0.123 0.055 0.126 0.081 0.055 0.661-0.191 1.59-0.586 2.675-1.14 3.155-0.557 0.479-2.011 0.881-3.783 1.040-0.933 0.084-0.874 0.075-0.874 0.146 0 0.1 0.282 0.12 1.312 0.1 1.658-0.036 2.727-0.217 3.44-0.593 0.534-0.282 0.849-0.745 1.079-1.6 0.045-0.168 0.081-0.337 0.081-0.379 0-0.039 0.016-0.071 0.032-0.071 0.019 0 0.032 0.032 0.032 0.071 0 0.117 0.152 0.654 0.259 0.926 0.123 0.304 0.347 0.645 0.534 0.81 0.424 0.376 1.279 0.641 2.445 0.768 0.551 0.058 2.157 0.097 2.462 0.058 0.181-0.023 0.211-0.036 0.211-0.091 0-0.071 0.058-0.062-0.875-0.146-1.772-0.159-3.226-0.56-3.783-1.040-0.554-0.479-0.949-1.564-1.14-3.155-0.071-0.58-0.068-0.606 0.058-0.661 0.136-0.062 0.395-0.33 0.557-0.577 0.126-0.194 0.13-0.198 0.308-0.22 0.36-0.042 0.651-0.24 0.716-0.483 0.019-0.071 0.026-0.207 0.013-0.308-0.016-0.152 0.003-0.285 0.13-0.81 0.871-3.637 1.904-5.856 3.164-6.805 0.509-0.385 1.098-0.586 1.836-0.635 0.583-0.036 1.069 0.084 1.739 0.437 0.868 0.457 1.636 1.046 3.802 2.915 0.508 0.441 1.108 0.955 1.338 1.147 0.398 0.34 0.525 0.405 0.525 0.275 0-0.068-0.709-0.875-1.393-1.577-1.675-1.733-2.999-2.795-4.211-3.388-0.823-0.402-1.179-0.489-1.869-0.46-0.946 0.042-1.752 0.421-2.523 1.189-0.544 0.544-0.936 1.098-1.357 1.927-0.729 1.428-1.27 3.43-1.351 4.985-0.010 0.217-0.026 0.408-0.039 0.428-0.013 0.026-0.087-0.003-0.227-0.087-0.408-0.246-0.826-0.356-1.364-0.356s-0.955 0.11-1.364 0.356c-0.139 0.084-0.214 0.113-0.227 0.087-0.013-0.019-0.029-0.211-0.039-0.428-0.097-1.875-0.858-4.327-1.785-5.759-0.632-0.975-1.377-1.678-2.167-2.044-0.447-0.207-0.784-0.279-1.351-0.295-0.353-0.006-0.56 0.003-0.696 0.036z"></path>
<path d="M13.312 17.752c-1.535 0.402-2.193 1.959-1.237 2.938 0.389 0.395 1.309 0.91 1.888 1.053 0.321 0.081 0.975 0.146 1.684 0.172 0.862 0.029 0.878 0.026 1.202-0.249 0.146-0.123 0.275-0.243 0.285-0.266 0.013-0.019-0.032-0.46-0.1-0.975-0.133-1.014-0.146-1.049-0.395-1.373-0.392-0.512-1.503-1.153-2.287-1.321-0.304-0.065-0.748-0.055-1.040 0.023z"></path>
<path d="M27.093 17.733c-0.777 0.168-1.885 0.813-2.274 1.318-0.246 0.321-0.262 0.366-0.382 1.292-0.062 0.47-0.113 0.907-0.113 0.968 0 0.104 0.026 0.136 0.275 0.347 0.337 0.285 0.347 0.285 1.211 0.256 0.709-0.026 1.364-0.091 1.684-0.172 0.58-0.142 1.5-0.657 1.888-1.053 0.832-0.855 0.453-2.196-0.787-2.779-0.457-0.214-1.033-0.282-1.503-0.178z"></path>
<path d="M7.466 24.279c-0.107 0.006-0.47 0.026-0.81 0.045-0.729 0.042-2.964 0.262-3.796 0.376-1.253 0.168-2.3 0.372-2.332 0.457-0.042 0.11 0.045 0.11 0.593 0.013 1.091-0.198 2.666-0.418 3.462-0.486 1.169-0.1 3.323-0.136 4.275-0.068 2.329 0.165 5.101 0.981 7.362 2.17 0.291 0.152 0.395 0.175 0.395 0.078 0-0.062-0.104-0.123-0.878-0.515-2.183-1.101-4.091-1.736-6.086-2.024-0.24-0.036-1.811-0.068-2.186-0.045z"></path>
<path d="M32.275 24.279c-2.099 0.211-4.165 0.862-6.555 2.070-0.774 0.392-0.878 0.453-0.878 0.515 0 0.097 0.104 0.075 0.395-0.078 2.261-1.189 5.033-2.005 7.362-2.17 0.952-0.068 3.106-0.032 4.275 0.068 0.797 0.068 2.371 0.288 3.462 0.486 0.547 0.097 0.635 0.097 0.593-0.013-0.032-0.084-1.079-0.288-2.332-0.46-0.713-0.094-3.012-0.327-3.731-0.372-0.544-0.036-2.368-0.068-2.591-0.045z"></path>
<path d="M8.389 26.254c-2.445 0.165-5.072 0.868-7.411 1.989-0.372 0.181-0.46 0.233-0.46 0.288 0 0.045 0.019 0.068 0.062 0.068 0.036 0 0.308-0.097 0.609-0.214 2.342-0.92 5.124-1.603 7.443-1.83 0.573-0.055 2.057-0.045 2.753 0.016 1.493 0.139 2.928 0.431 4.314 0.878 0.483 0.155 0.544 0.165 0.58 0.11 0.039-0.062-0.058-0.117-0.457-0.249-1.574-0.534-3.514-0.92-5.215-1.043-0.405-0.029-1.843-0.036-2.219-0.013zM7.093 26.591c-0.862 0.142-1.519 0.282-2.381 0.502-1.004 0.259-1.040 0.266-0.68 0.146 0.382-0.126 1.302-0.36 1.911-0.486 0.538-0.11 1.435-0.253 1.587-0.253 0.055 0-0.143 0.042-0.437 0.091z"></path>
<path d="M30.769 26.27c-1.681 0.133-3.602 0.521-5.134 1.040-0.398 0.133-0.496 0.188-0.457 0.249 0.036 0.055 0.097 0.045 0.58-0.11 1.386-0.447 2.821-0.738 4.314-0.878 0.696-0.062 2.18-0.071 2.753-0.016 2.319 0.227 5.101 0.91 7.443 1.83 0.301 0.117 0.573 0.214 0.609 0.214 0.042 0 0.062-0.023 0.062-0.068 0-0.055-0.087-0.107-0.46-0.288-2.118-1.014-4.308-1.645-6.701-1.927-0.515-0.062-2.439-0.091-3.009-0.045zM34.504 26.578c0.943 0.139 2.225 0.431 2.921 0.661 0.359 0.12 0.324 0.113-0.68-0.146-0.862-0.22-1.519-0.36-2.381-0.502-0.68-0.113-0.593-0.123 0.139-0.013z"></path>
<path d="M10.348 27.498c-0.92 0.094-1.61 0.253-2.704 0.615-1.409 0.47-2.944 1.066-4.57 1.775-1.289 0.564-3.012 1.389-3.058 1.464-0.013 0.019-0.003 0.055 0.016 0.081 0.032 0.039 0.058 0.036 0.188-0.016 0.084-0.032 0.771-0.317 1.529-0.632 3.181-1.321 6.228-2.484 7.087-2.708 1.529-0.392 3.271-0.415 5.072-0.058 0.389 0.078 1.091 0.259 1.36 0.35 0.217 0.078 0.298 0.084 0.33 0.029 0.039-0.062-0.097-0.142-0.496-0.285-0.748-0.266-1.571-0.46-2.41-0.567-0.473-0.062-1.914-0.091-2.345-0.049zM6.831 28.583c-0.010 0.006-0.321 0.13-0.693 0.272-0.376 0.139-0.832 0.317-1.017 0.389-0.185 0.075-0.34 0.13-0.35 0.12-0.013-0.013 0.703-0.301 1.545-0.615 0.444-0.168 0.547-0.201 0.515-0.165zM4.696 29.409c-0.026 0.016-0.062 0.032-0.081 0.032-0.016 0-0.010-0.016 0.016-0.032s0.065-0.032 0.081-0.032c0.019 0 0.010 0.016-0.016 0.032zM4.534 29.474c-0.026 0.016-0.062 0.032-0.081 0.032-0.016 0-0.010-0.016 0.016-0.032s0.065-0.032 0.081-0.032c0.019 0 0.010 0.016-0.016 0.032z"></path>
<path d="M29.36 27.488c-0.952 0.062-2.083 0.298-3.006 0.625-0.398 0.142-0.534 0.223-0.496 0.285 0.032 0.055 0.113 0.049 0.33-0.029 0.269-0.091 0.972-0.272 1.36-0.35 1.801-0.356 3.543-0.334 5.072 0.058 0.858 0.223 3.906 1.386 7.087 2.708 0.758 0.314 1.445 0.599 1.529 0.632 0.13 0.052 0.155 0.055 0.188 0.016 0.019-0.026 0.029-0.062 0.016-0.081-0.026-0.045-0.842-0.45-1.717-0.858-2.008-0.936-4.065-1.765-5.856-2.364-1.147-0.382-1.862-0.544-2.808-0.632-0.34-0.029-1.308-0.036-1.7-0.010zM35.161 28.758c0.8 0.295 1.542 0.589 1.526 0.606-0.010 0.010-0.165-0.045-0.35-0.12-0.185-0.071-0.641-0.249-1.017-0.389-0.612-0.233-0.742-0.288-0.69-0.288 0.010 0 0.249 0.087 0.531 0.191zM36.826 29.409c0.026 0.016 0.036 0.032 0.016 0.032-0.016 0-0.055-0.016-0.081-0.032s-0.032-0.032-0.016-0.032c0.019 0 0.055 0.016 0.081 0.032zM36.988 29.474c0.026 0.016 0.036 0.032 0.016 0.032-0.016 0-0.055-0.016-0.081-0.032s-0.032-0.032-0.016-0.032c0.019 0 0.055 0.016 0.081 0.032z"></path>
</symbol>
</defs>
</svg>
